<?xml version="1.0" encoding="utf-8"?>
<!-- Generator: Adobe Illustrator 25.2.1, SVG Export Plug-In . SVG Version: 6.00 Build 0)  -->
<svg version="1.1" id="Layer_1" xmlns="http://www.w3.org/2000/svg" xmlns:xlink="http://www.w3.org/1999/xlink" x="0px" y="0px"
	 viewBox="0 0 2130 340.8" style="enable-background:new 0 0 2130 340.8;" xml:space="preserve">
<style type="text/css">
	.st0{fill-rule:evenodd;clip-rule:evenodd;fill:#FFFFFF;}
</style>
<g>
	<path class="st0" d="M821.2,7.6L702.6,214.6c-2.5,4.4-25.9,40.1-73.4,43.3c-47.3,2.2-87.4-42.4-86.6-90.4
		c1.5-47.7,37.2-85.8,84.7-86.6c40.5,0.8,70.1,31.9,69.6,32c8.6,7.5,14.2,12.9,20.7,22.6L761,60.3c-7.7-8.1-11-11.6-20.7-18.8
		C715.7,19.4,679.7,1.8,629.2,0c-48.7-1-97.7,19.3-135.5,67.8c-23.3,31-32.7,58.8-33.9,99.8c0.5,47.9,17.9,86.8,43.3,114.8
		c43.5,45.4,96.1,56.4,124.3,56.5c40.4-1.8,69.9-11.5,97.9-30.1c8.8-6.1,18.4-14.2,28.2-24.5h75.3v47.1h77.2V7.6H821.2z
		 M828.8,216.5h-41.4l41.4-73.4V216.5L828.8,216.5z M982,333.2V84.2h-61V8.9h203.8v75.3h-62.4v249.1L982,333.2L982,333.2z
		 M1301.5,209.2h-82.3v124.1h-80.4V8.9h80.4v123.1h82.3V8.9h80.9v324.3h-80.9V209.2z M2049.7,8.9v180.2L1929.1,8.9h-72.6v109.6
		c-8.2-24.9-22.5-48-42.7-67.6C1782,19.9,1740.4,3,1696.5,3c-46.7,0-87.3,16-119.7,47.4c-32.3,31.5-49.9,72.5-49.9,117.2
		c0,35.6,8.7,66.9,25.9,94h-61.5V8.9h-79.9v324.3h173.7V299c30.5,26.5,68,40.2,110.9,40.2c45.7,0,89.2-17.8,121.1-50.6
		c18.2-18.5,31.7-41.1,39.4-65.9v110.6h80.4V152.6l122.4,180.6h70.7V8.9H2049.7L2049.7,8.9z M1696,258.9
		c-45.3,0-86.4-39.2-86.4-90.3c0-47.4,38.4-85.3,87.3-85.3c46.2,0,84.6,37.9,84.6,85.3C1781.5,221.5,1743.2,258.9,1696,258.9z"/>
	<path class="st0" d="M459.8,79.1V7.6H281V141c-5.4-38.6-20.9-70.2-45.8-93.3C201,15.8,164.5,8.9,112.3,8.9H0v324.3h123.4
		c46.2,0,77.2-6.4,112.3-40.2c24.8-24.1,39.9-54.6,45.3-90.6v128.8h178.8v-69.6H360v-60.2h86.6v-69.7H360V79.1L459.8,79.1
		L459.8,79.1L459.8,79.1z M112.8,262.1H80.4V78.7h31.9c59.1,0,91,32.8,91,91.2C203.3,233.8,174.2,262.1,112.8,262.1L112.8,262.1z"/>
</g>
</svg>
