<svg id="Camada_1" data-name="Camada 1" xmlns="http://www.w3.org/2000/svg" viewBox="0 0 1093.12 262.7"><defs><style>.cls-1{fill:#f7c105;}.cls-2{fill:#fff;}</style></defs><path class="cls-1" d="M6.56,16.91H47L77.75,64.13l30.77-47.22h40.42L94.56,98.29v66.18H60.94V98.29Z"/><path class="cls-1" d="M238.73,16.91V46.42h-50.8V75.75h48.65v29.52H187.93V135h50.8v29.51H154.3V16.91Z"/><path class="cls-1" d="M291.67,16.91V135h50.8v29.51H258.05V16.91Z"/><path class="cls-1" d="M392.73,16.91V135h50.8v29.51H359.11V16.91Z"/><path class="cls-1" d="M453.55,90.6q0-32,21.82-54.2T528,14.22q30.94,0,52.58,22.09T602.19,90.6q0,32.37-21.29,54.46T528,167.16q-32.39,0-53.4-21.92T453.55,90.6Zm36.31,0a60.16,60.16,0,0,0,3.57,21.19A35.3,35.3,0,0,0,506,128q8.94,6.63,22,6.62,18.78,0,28.35-12.88t9.57-31.12q0-18.06-9.75-31T528,46.6q-18.26,0-28.17,13T489.86,90.6Z"/><path class="cls-1" d="M724.53,164.47,700.92,81.66l-23.61,82.81H639.93l-42-147.56h37.39L660.5,118.15h.89L688.22,16.91h25.4l26.83,101.24h.9L766.57,16.91h37.2l-42,147.56Z"/><path class="cls-2" d="M921.27,16.91V46.42H869.58V75.75h47.76v29.52H869.58v59.2H836V16.91Z"/><path class="cls-2" d="M971,16.91V164.47H937.37V16.91Z"/><path class="cls-2" d="M982.82,46.42V16.91h103.74V46.42H1051.5V164.47h-33.62v-118Z"/><path class="cls-2" d="M307.48,229v-6.81h32.2c-.48,16.93-13.28,26.29-26.84,26.29-13.76,0-25.53-12-25.53-25.74,0-16.52,12.66-27.11,25.53-27.11,9.78,0,18.17,4.61,23.33,13.76H327.5c-4.33-4.95-8.67-6.95-14.31-6.95-9.91,0-18.45,9.36-18.45,19.41,0,10.73,8.47,19.82,18.72,19.82,8.06,0,14.52-4.48,17.76-12.67Z"/><path class="cls-2" d="M354.14,247.52V229.14l-15.83-32.55h8.33l11.21,23.88L369,196.59h8.26l-15.69,32.55v18.38Z"/><path class="cls-2" d="M430,247.52v-43h-.21l-17.14,43h-4.47l-17.2-43h-.14v43h-7.43V196.59h11.7l15.27,39,15.35-39h11.7v50.93Z"/><path class="cls-2" d="M499.76,247.52l-5.64-15H475.81l-5.64,15h-7.85l19.34-50.93h6.68l19.34,50.93Zm-14.66-41.3H485l-6.54,19.48h13.14Z"/><path class="cls-2" d="M546.42,247.52l-25.19-39.37h-.13v39.37h-7.44V196.59h8.12l24.78,38.75h.14V196.59h7.43v50.93Z"/><path class="cls-2" d="M563.77,247.52V196.59h17.68c15.42,0,24.85,12.18,24.85,25.46,0,15.56-9.84,25.47-25.95,25.47Zm16.31-6.82c11.77,0,18.78-6.88,18.78-18.51,0-11.42-8.05-18.79-18.44-18.79H571.2v37.3Z"/><path class="cls-2" d="M654.06,209.8c0-4.61-3-7.36-7.16-7.36a7.08,7.08,0,0,0-6.81,6.95c0,3.58,2.41,5.64,7.36,7.23,11,3.51,15.07,7.64,15.07,16.44,0,9.23-6.6,15.42-15.62,15.42s-15.55-6.47-15.69-16h7.43c.07,5.51,3.31,9.23,8.26,9.23s8.19-3.58,8.19-8.61c0-3.71-1.65-6.05-7.09-7.91-12.59-4.27-15.34-8.4-15.34-15.62a14,14,0,0,1,14.24-13.9c8.4,0,14.45,5.3,14.59,14.17Z"/><path class="cls-2" d="M697.9,247.52V225.36h-21v22.16h-7.44V196.59h7.44v21.95h21V196.59h7.43v50.93Z"/><path class="cls-2" d="M739.12,248.48C725,248.48,713,236.37,713,222.6c0-15.62,12-27,26.29-27A26.29,26.29,0,0,1,766,221.71C766,237.12,754.12,248.48,739.12,248.48Zm19.48-26.29c0-10.53-8-19.75-18.72-19.75-13.77,0-19.41,11.84-19.41,19.41,0,10.25,7.43,19.82,19.06,19.82C751.58,241.67,758.6,231.48,758.6,222.19Z"/><path class="cls-2" d="M773.12,247.52V196.59h14.8c10.94,0,17.89,5.44,17.89,15.42S799,227.42,788,227.42h-7.44v20.1Zm14.8-26.91c6.53,0,10.46-3.1,10.46-8.6s-4.06-8.61-10.53-8.61h-7.3v17.21Z"/></svg>