<?xml version="1.0" encoding="utf-8"?>
<!-- Generator: Adobe Illustrator 25.2.1, SVG Export Plug-In . SVG Version: 6.00 Build 0)  -->
<svg version="1.1" id="Layer_1" xmlns="http://www.w3.org/2000/svg" xmlns:xlink="http://www.w3.org/1999/xlink" x="0px" y="0px"
	 viewBox="0 0 1607.6 395.3" style="enable-background:new 0 0 1607.6 395.3;" xml:space="preserve">
<style type="text/css">
	.st0{fill-rule:evenodd;clip-rule:evenodd;fill:#FFFFFF;}
</style>
<g>
	<path class="st0" d="M1303.1,54.3c2.1,3,4.8,5.6,7.7,7.7c11.9,8.7,28.1,8.7,40,0c3-2.1,5.6-4.8,7.7-7.7c6.4-8.8,8.2-20.1,4.9-30.4
		c-2.2-7-6.7-13.1-12.6-17.4c-11.9-8.7-28.1-8.7-40,0c-3,2.2-5.6,4.8-7.7,7.7c-6.4,8.8-8.2,20.1-4.9,30.4
		C1299.4,48,1301,51.3,1303.1,54.3z M1302.7,25.3c1.7-5.4,5.2-10.9,10.9-15c7.5-5.5,17.3-7.1,26.1-4.2c9.1,3,16.2,10.1,19.2,19.2
		c1.9,5.8,1.9,12,0,17.8c-3,9.1-10.1,16.3-19.2,19.2c-5.8,1.9-12.1,1.9-17.9,0c-9.1-2.9-16.3-10.1-19.2-19.2
		C1300.9,37.4,1300.9,31.1,1302.7,25.3L1302.7,25.3z M285.1,52.8c-5.1-9-11.6-17.1-19.2-24c-6.9-6.2-14.6-11.4-23-15.4
		c-8.5-4-17.8-6.8-28.9-8.7c-11.2-1.8-24.2-2-37.2-2H0.2L0,321h83V77.8h99.7c2.2,0,4.4,1,6.4,1.4s4,0.8,5.9,1.4
		c6.1,1.8,11.6,4,16.9,10.7c1.1,1.4,2.1,2.9,3,4.7c0.9,1.8,1.8,3.8,2.6,6.1c0.8,2.3,1.4,5,1.9,8c0.5,3.6,0.8,7.2,0.7,10.8
		c-0.1,4.9-0.4,9.8-1.1,14.6c-0.7,4.7-1.7,8.4-2.8,11.7c-1,2.9-2.2,5.7-3.7,8.4c-1.2,2.2-2.7,4.2-4.3,6.2
		c-9.7,10.7-18.9,12-29.1,12.3h-76.3V251h53.8c8.3-0.1,17.3,1.1,25.9,5.4c4,2.1,7.7,4.8,10.9,8c6.5,6.3,10.1,15,11.9,23
		c1,3.9,2.4,7.5,2.4,11.2v96.7h81.4V280.1c0-10-2-20-4.3-27.8c-2.4-7.8-5.5-13.5-9.5-18.3s-9-8.7-14.6-11.5
		c-5.7-2.8-11.9-4.5-18.2-5c7.4-2.7,14.5-6.3,20.9-10.9c6.3-4.5,11.7-9.7,16.4-15.9s8.7-13.1,12.8-23.4c4.1-10.3,8.4-23.8,10.1-37.4
		s0.9-27.1-2.3-40.5C296.8,76.6,291.8,64.3,285.1,52.8L285.1,52.8z"/>
	<path class="st0" d="M1322.5,35.5h7.7c2.8,0.1,4.6-0.4,6.9,2.3c0.9,1.6,1,3.5,1.3,6.3c0.2,2,0.1,3.2,0.7,4.6h4.7
		c-0.5-0.7-0.8-1.4-1-2.2c-0.1-0.2-0.3-2.6-0.5-4.5c-0.3-3-0.6-6.1-3.4-7.5c-0.4-0.2-0.9-0.4-1.4-0.6c2.6-0.8,5.6-3.8,5.7-5.7
		c0.5-2.4,0.5-6.7-3.6-9.4c-1.7-0.9-1.8-0.8-3.4-1.1c-1.3-0.1-2.6-0.2-3.9-0.1h-13.7v31.2h4L1322.5,35.5L1322.5,35.5L1322.5,35.5z
		 M1322.5,21.1h9.2c2,0,3.8,0,5.3,0.7c3.6,2.5,2.4,6.3,1,8.4c-1.6,1.6-2.3,1.8-4.6,2.1c-1,0.1-2.6,0.1-4.2,0.1h-6.7L1322.5,21.1
		L1322.5,21.1z M669,77.2c-10.3,1.7-20,4.4-29.8,8.2c-9.8,3.8-19.6,8.7-28.9,15.7c-9.7,7.4-18.2,16.2-25.1,26.2
		c-7.3,10.4-12.9,21.9-16.5,34.1c-3.7,12.3-5.4,25.3-5.1,38.1c0.3,12.8,2.8,25.5,7.1,37.1c4.4,11.7,10.6,22.4,15.6,29.7
		c4.9,7.3,8.4,11.1,11.9,14.6s7,6.6,10.9,9.7s8.1,6.1,15,9.9s16.6,8.5,26.2,11.9c19.6,7.3,39.8,8.9,60.6,8.5h111.5v-70.5H710.6
		c-9.8,0.1-19.1-0.5-28.2-3c-4.6-1.2-9-2.8-13.2-4.8c-7.2-3.5-13.3-8.8-17.7-15.3c-2.3-3.4-4.1-7.1-5.5-11c-3-8.5-3.9-18.8-1.1-28.2
		c1.4-4.8,3.5-9.5,6.4-13.8c5.3-8.2,14.3-14.8,22.3-17.8c7.5-2.9,12.6-2.9,18.6-3.5c3-0.2,6.1-0.6,9.3-0.6c15.1,0,30.3-0.2,45.3,0.1
		l-0.2,0.5l-7.7,12.9c-7.6,12.8-23,38.3-38,63.8c25.6,0.3,51.2,0.2,76.9,0.3l44.6-78.4V75.5h-121C690.3,75.5,679.4,75.6,669,77.2
		L669,77.2z M1346.7,123.7c-8.1-11.1-17.8-20.9-29-29c-11-7.9-23.2-14.1-36.1-18.2c-38.8-12.3-81.1-5.6-114.1,18.2
		c-22.3,16.1-38.8,38.9-47.2,65.1c-4,12.6-6.1,25.8-6,39c0,41.2,19.8,80,53.2,104c21.8,15.8,48.1,24.3,75,24.3
		c27,0,53.2-8.5,75.1-24.3C1375.1,261.4,1388.1,181.2,1346.7,123.7C1346.7,123.8,1346.7,123.8,1346.7,123.7z M1285,229.4
		c-3.3,4.5-7.3,8.6-11.8,11.8s-9.5,5.7-14.7,7.4c-16,4.9-32.3,2.6-46.5-7.4c-9.1-6.5-15.9-15.9-19.3-26.5c-5.1-15.8-2.3-33,7.4-46.5
		c6.6-9.1,15.9-15.8,26.5-19.3c15.8-5,33-2.3,46.5,7.4c9.1,6.6,15.8,15.9,19.2,26.5C1297.4,198.9,1295.1,215.2,1285,229.4
		L1285,229.4z M408.9,77.2c-10.3,1.7-20,4.4-29.8,8.2c-9.8,3.8-19.6,8.7-28.9,15.7c-9.7,7.4-18.2,16.2-25.1,26.2
		c-14.8,21.1-22.4,46.5-21.6,72.2c0.3,12.7,2.7,25.2,7.1,37.1c4.4,11.7,10.6,22.4,15.6,29.7c4.9,7.3,8.4,11.1,11.9,14.6
		s7,6.6,10.9,9.7s8.1,6.1,15,9.9s16.6,8.5,26.2,11.9s19.1,5.8,29.2,7.2c10.1,1.4,20.8,1.3,31.5,1.3h110.9v-70.4l-111.2,0.2
		c-9.8,0-19.1-0.8-28.2-3.2c-4.6-1.2-9-2.8-13.3-4.8c-3.7-1.8-7.1-4.1-10.2-6.8c-5.9-5.3-10.4-12-13-19.5c-2.9-8.3-4-19.1-1.1-28.9
		c1.4-4.9,3.6-9.4,6.4-13.6c5.3-8.1,14.3-14.7,22.3-17.8c7.5-2.9,12.6-2.9,18.6-3.5c3-0.2,6.1-0.6,9.3-0.6l41.4,0.1l-40.6,77.5h75.5
		l44.3-78.5l0.1-75.7h-121C430.2,75.5,419.2,75.6,408.9,77.2L408.9,77.2z M1588.3,173.2c6.8-7.8,12-16.8,15.2-26.6
		c3.3-9.8,4-20.4,4-30.8V78.9h-72.3c0.4,10.7-0.3,21.6-1.8,30s-3.9,14.5-7,20c-3.2,5.4-7.1,10.4-11.6,14.7
		c-9.4,8.9-20.4,13.7-31.2,13.8l-21.7,0.1l-0.4-140.1l-75.4,0.1l0.1,303.5h75.8v-89.9h28.1c5.6,0,11.2,1.5,16.3,3.7
		c5.2,2.2,9.9,5.2,13.6,9.3c3.6,4,6.2,9,8.1,13.7c1.9,4.6,3.1,8.9,4.1,15.5s2.2,15.6,2.3,24.7l0.1,23.2h72.3l0.1-45.4
		c0-8.9-0.7-17.9-1.8-25.1c-1-7.2-2.5-12.7-4.1-17.3s-3.3-8.6-5.2-12c-3.2-6-7.5-11.4-12.6-15.9c-2.4-2-4.8-3.9-8.1-6
		c-3.2-2.1-7.3-4.6-11.3-7C1573.1,187.5,1581.4,181,1588.3,173.2L1588.3,173.2z M1093.3,155.5c-1.5-5-3.3-9.9-5.4-14.6
		c-5.9-12.4-13.6-24.2-29.4-36.3c-5-3.8-10.4-7.1-16-9.9c-6.7-3.4-13.7-6.3-20.9-8.6c-8-2.6-17-4.8-27.5-6.3s-22.4-2.5-34.4-2.5H934
		v76.1l41.6,0.3c4.1,0,8.3,0.5,12.2,1.4s7.7,2.2,11.2,3.9c7.1,3.4,13.2,8.6,17.7,15.1c7,10.2,9.5,22.4,7,34.3
		c-1.6,7.3-5.1,14-10.1,19.5c-5.2,5.7-11.8,9.9-19.1,12.4c-3.9,1.3-8.3,2.2-12.9,3.8c-4.7,1.6-9.1,6.3-14.6,6.3h-52V17.5h-74.7V321
		h106.9c19.1,0.1,36.9-1.4,54.6-5.7c9.8-2.2,19.3-5.7,28.2-10.4c11.3-6.1,21.7-13.8,30.9-22.8c9.5-9.4,17.5-20.3,23.5-32.2
		s10.2-24.7,12-38c1.9-13.3,1.4-26.9,0.6-36.5C1096.1,166,1094.8,160.6,1093.3,155.5L1093.3,155.5z"/>
</g>
</svg>
