<?xml version="1.0" encoding="utf-8"?>
<!-- Generator: Adobe Illustrator 25.2.3, SVG Export Plug-In . SVG Version: 6.00 Build 0)  -->
<svg version="1.1" id="Camada_1" xmlns="http://www.w3.org/2000/svg" xmlns:xlink="http://www.w3.org/1999/xlink" x="0px" y="0px"
	 viewBox="0 0 24 24" style="enable-background:new 0 0 24 24;" xml:space="preserve">
<style type="text/css">
	.st0{fill-rule:evenodd;clip-rule:evenodd;}
</style>
<path class="st0" d="M20.3,3.4L20.3,3.4L20.3,3.4C18.2,1.3,15.2,0,12,0S5.8,1.3,3.7,3.4C3.5,3.5,3.4,3.6,3.3,3.8C1.2,5.9,0,8.8,0,12
	s1.2,6.1,3.3,8.2c1.3,1.4,3,2.5,4.9,3.1C9.3,23.8,10.7,24,12,24s2.7-0.2,3.9-0.6c1.7-0.6,3.2-1.5,4.5-2.8c2.3-2.2,3.7-5.2,3.7-8.6
	S22.6,5.6,20.3,3.4z M20.3,18.2c-0.4-0.3-0.9-0.5-1.6-0.7c-2-0.5-3.4-0.8-3.7-1.5c-0.1-0.3-0.1-0.6,0.2-1.1c1.9-3.6,2.2-6.7,1-8.8
	C15.4,4.8,13.8,4,12,4c-1.9,0-3.4,0.8-4.3,2.2c-1.2,2.1-0.9,5.2,1,8.8C9,15.5,9.1,15.8,9,16.1c-0.3,0.7-1.7,1-3.7,1.5
	c-1,0.2-1.6,0.6-2,1c0,0,0,0,0,0C1.8,16.8,1,14.5,1,12c0-2.5,0.8-4.8,2.3-6.7c0.6-0.7,1.2-1.4,1.9-1.9C7,1.9,9.4,1,12,1
	s5,0.9,6.8,2.4c0.5,0.4,1,0.9,1.5,1.5C22,6.8,23,9.3,23,12c0,2.5-0.8,4.8-2.2,6.6C20.7,18.5,20.5,18.4,20.3,18.2z"/>
</svg>
