<?xml version="1.0" encoding="utf-8"?>
<!-- Generator: Adobe Illustrator 25.2.3, SVG Export Plug-In . SVG Version: 6.00 Build 0)  -->
<svg version="1.1" id="Badges" xmlns="http://www.w3.org/2000/svg" xmlns:xlink="http://www.w3.org/1999/xlink" x="0px" y="0px"
	 viewBox="0 0 155 45.7" style="enable-background:new 0 0 155 45.7;" xml:space="preserve">
<style type="text/css">
	.st0{fill:#FFFFFF;}
</style>
<g>
	<path d="M150.2,45.8H4.8c-2.7,0-4.8-2.1-4.8-4.6V4.6C0,2.1,2.2,0,4.8,0h145.3c2.7,0,4.8,2.1,4.8,4.6v36.7
		C155,43.8,152.8,45.8,150.2,45.8z"/>
	<path class="st0" d="M33.8,22.7c0-3.6,3-5.3,3.1-5.4c-1.7-2.4-4.2-2.8-5.2-2.9c-2.2-0.2-4.4,1.3-5.4,1.3c-1.1,0-2.9-1.3-4.7-1.3
		c-2.4,0-4.6,1.4-5.8,3.6c-2.5,4.4-0.7,10.8,1.7,14.3c1.3,1.7,2.6,3.7,4.5,3.6c1.8-0.1,2.5-1.1,4.7-1.1c2.2,0,2.8,1.1,4.7,1.1
		s3.2-1.7,4.4-3.4c1.4-1.9,1.9-3.9,1.9-4C37.6,28.3,33.8,26.9,33.8,22.7z"/>
	<path class="st0" d="M30.2,12.1c0.9-1.3,1.6-2.9,1.5-4.6c-1.4,0.1-3.2,0.9-4.1,2.2c-0.9,1-1.7,2.8-1.5,4.4
		C27.6,14.2,29.2,13.3,30.2,12.1z"/>
	<path class="st0" d="M59.9,35.6h-2.5L56,31.3h-4.8l-1.3,4.4h-2.4l4.8-14.8h3L59.9,35.6z M55.5,29.4l-1.3-3.9
		c-0.1-0.3-0.3-1.4-0.8-2.8l0,0c-0.1,0.6-0.3,1.6-0.7,2.8l-1.3,3.9H55.5z"/>
	<path class="st0" d="M72.2,30.3c0,1.8-0.5,3.2-1.5,4.4c-0.9,0.9-1.9,1.4-3.3,1.4s-2.4-0.5-3-1.5l0,0v5.6H62V28.6
		c0-1.1,0-2.3-0.1-3.6h2.1l0.1,1.7l0,0c0.8-1.3,1.9-1.9,3.6-1.9c1.3,0,2.3,0.5,3.1,1.5C71.7,27.3,72.2,28.5,72.2,30.3z M69.8,30.3
		c0-1-0.2-1.9-0.7-2.5c-0.5-0.7-1.1-1-2.1-1c-0.6,0-1.1,0.2-1.6,0.6c-0.5,0.3-0.8,0.9-0.9,1.5c-0.1,0.3-0.1,0.6-0.1,0.7v1.8
		c0,0.8,0.2,1.4,0.7,1.9c0.5,0.6,1.1,0.8,1.8,0.8c0.9,0,1.6-0.3,2.1-1C69.5,32.3,69.8,31.4,69.8,30.3z"/>
	<path class="st0" d="M84.4,30.3c0,1.8-0.5,3.2-1.5,4.4C82,35.5,81,36,79.6,36s-2.4-0.5-3-1.5l0,0v5.6h-2.4V28.6
		c0-1.1,0-2.3-0.1-3.6h2.1l0.1,1.7l0,0c0.8-1.3,1.9-1.9,3.6-1.9c1.3,0,2.3,0.5,3.1,1.5C84,27.3,84.4,28.5,84.4,30.3z M82,30.3
		c0-1-0.2-1.9-0.7-2.5c-0.5-0.7-1.1-1-2.1-1c-0.6,0-1.1,0.2-1.6,0.6c-0.5,0.3-0.8,0.9-0.9,1.5c-0.1,0.3-0.1,0.6-0.1,0.7v1.8
		c0,0.8,0.2,1.4,0.7,1.9c0.5,0.6,1.1,0.8,1.8,0.8c0.9,0,1.6-0.3,2.1-1C81.8,32.3,82,31.4,82,30.3z"/>
	<path class="st0" d="M98.2,31.5c0,1.3-0.5,2.3-1.3,3.1c-0.9,0.9-2.3,1.3-4,1.3c-1.6,0-2.9-0.3-3.8-0.9l0.6-1.9
		c1,0.6,2.2,0.9,3.4,0.9c0.9,0,1.6-0.2,2.1-0.6c0.5-0.5,0.7-0.9,0.7-1.6c0-0.6-0.2-1.1-0.6-1.5c-0.5-0.5-1.1-0.8-2.1-1.1
		c-2.6-0.9-3.9-2.4-3.9-4.2c0-1.3,0.5-2.2,1.4-3c0.9-0.8,2.1-1.1,3.7-1.1c1.4,0,2.4,0.2,3.3,0.7l-0.6,1.9c-0.8-0.5-1.7-0.7-2.9-0.7
		c-0.8,0-1.5,0.2-1.9,0.6c-0.3,0.3-0.6,0.8-0.6,1.4c0,0.6,0.2,1,0.7,1.5c0.3,0.3,1.1,0.7,2.2,1.1c1.3,0.5,2.2,1.1,2.9,1.8
		C97.8,29.7,98.2,30.5,98.2,31.5z"/>
	<path class="st0" d="M106,26.8h-2.6V32c0,1.3,0.5,1.9,1.4,1.9c0.5,0,0.8,0,1-0.1l0.1,1.8c-0.5,0.2-1,0.2-1.8,0.2
		c-0.9,0-1.7-0.2-2.2-0.8c-0.6-0.6-0.8-1.5-0.8-2.9v-5.4h-1.6V25h1.6V23l2.3-0.7V25h2.6V26.8z"/>
	<path class="st0" d="M117.8,30.3c0,1.6-0.5,3-1.4,4c-1,1-2.3,1.6-3.9,1.6s-2.9-0.6-3.8-1.6c-0.9-1-1.4-2.3-1.4-3.9
		c0-1.6,0.5-3,1.5-4c0.9-1,2.3-1.6,3.9-1.6c1.6,0,2.9,0.6,3.8,1.6C117.3,27.4,117.8,28.6,117.8,30.3z M115.2,30.4
		c0-1-0.2-1.8-0.7-2.5c-0.5-0.8-1.3-1.3-2.2-1.3c-0.9,0-1.7,0.5-2.2,1.3c-0.5,0.7-0.7,1.6-0.7,2.5c0,1,0.2,1.8,0.7,2.5
		c0.5,0.8,1.3,1.3,2.2,1.3c0.9,0,1.6-0.5,2.2-1.3C115,32.2,115.2,31.3,115.2,30.4z"/>
	<path class="st0" d="M125.4,27c-0.2,0-0.5-0.1-0.8-0.1c-0.8,0-1.5,0.3-1.9,0.9c-0.3,0.6-0.6,1.3-0.6,2.1v5.6h-2.4v-7.3
		c0-1.3,0-2.3-0.1-3.3h2.1l0.1,2.1h0.1c0.2-0.7,0.7-1.3,1.1-1.7c0.6-0.3,1.1-0.6,1.7-0.6c0.2,0,0.5,0,0.6,0V27H125.4z"/>
	<path class="st0" d="M136,29.8c0,0.5,0,0.8-0.1,1h-7.1c0,1,0.3,1.8,1,2.4c0.6,0.5,1.4,0.8,2.3,0.8c1,0,2.1-0.1,2.9-0.5l0.3,1.6
		c-1,0.5-2.2,0.7-3.6,0.7c-1.6,0-3-0.5-3.9-1.5c-0.9-0.9-1.4-2.3-1.4-3.9s0.5-3,1.3-4c0.9-1.1,2.2-1.7,3.8-1.7
		c1.5,0,2.8,0.6,3.4,1.7C135.8,27.4,136,28.5,136,29.8z M133.8,29.2c0-0.7-0.1-1.3-0.5-1.8c-0.5-0.7-1-1-1.8-1
		c-0.8,0-1.4,0.3-1.8,0.9c-0.3,0.5-0.6,1.1-0.7,1.8h4.8V29.2z"/>
	<path class="st0" d="M54.9,11.8c0,1.3-0.3,2.3-1.1,3c-0.7,0.6-1.7,0.9-3.1,0.9c-0.7,0-1.3,0-1.7-0.1V8.5c0.6-0.1,1.3-0.1,2.1-0.1
		c1.3,0,2.2,0.2,2.9,0.8C54.4,9.7,54.9,10.7,54.9,11.8z M53.6,11.8c0-0.8-0.2-1.5-0.7-1.9c-0.5-0.5-1.1-0.7-1.9-0.7
		c-0.3,0-0.7,0-0.9,0.1v5.4c0.1,0,0.5,0,0.8,0c0.9,0,1.6-0.2,2.1-0.7S53.6,12.7,53.6,11.8z"/>
	<path class="st0" d="M61.3,12.9c0,0.8-0.2,1.5-0.7,1.9c-0.5,0.6-1.1,0.8-1.9,0.8s-1.4-0.2-1.8-0.8c-0.5-0.5-0.7-1.1-0.7-1.9
		s0.2-1.5,0.7-1.9c0.5-0.6,1.1-0.8,1.9-0.8c0.8,0,1.4,0.2,1.8,0.8C61,11.5,61.3,12.1,61.3,12.9z M60.1,12.9c0-0.5-0.1-0.9-0.3-1.3
		c-0.2-0.5-0.6-0.6-1-0.6c-0.5,0-0.8,0.2-1,0.6c-0.2,0.3-0.3,0.8-0.3,1.3s0.1,0.9,0.3,1.3c0.2,0.5,0.6,0.6,1,0.6
		c0.5,0,0.8-0.2,1-0.7C60,13.9,60.1,13.4,60.1,12.9z"/>
	<path class="st0" d="M70.1,10.3l-1.6,5.3h-1l-0.7-2.3c-0.2-0.6-0.3-1.1-0.5-1.7l0,0c-0.1,0.6-0.2,1.1-0.5,1.7l-0.7,2.3h-1l-1.7-5.3
		h1.1l0.6,2.5c0.1,0.6,0.2,1.1,0.3,1.7l0,0c0.1-0.5,0.2-1,0.5-1.7l0.7-2.5h0.9l0.7,2.4c0.2,0.6,0.3,1.1,0.5,1.7l0,0
		c0.1-0.6,0.2-1.1,0.3-1.7l0.7-2.4H70.1z"/>
	<path class="st0" d="M76.1,15.6h-1.1v-3c0-0.9-0.3-1.4-1-1.4c-0.3,0-0.6,0.1-0.8,0.3c-0.2,0.2-0.3,0.6-0.3,0.9v3.1h-1.1v-3.8
		c0-0.5,0-0.9,0-1.5h1v0.8l0,0c0.1-0.2,0.3-0.5,0.6-0.7c0.3-0.2,0.7-0.3,1-0.3c0.5,0,0.9,0.1,1.3,0.5c0.5,0.3,0.6,0.9,0.6,1.7V15.6z
		"/>
	<path class="st0" d="M79.3,15.6h-1.1V7.9h1.1V15.6z"/>
	<path class="st0" d="M86.1,12.9c0,0.8-0.2,1.5-0.7,1.9c-0.5,0.6-1.1,0.8-1.9,0.8s-1.4-0.2-1.8-0.8c-0.5-0.5-0.7-1.1-0.7-1.9
		s0.2-1.5,0.7-1.9s1.1-0.8,1.9-0.8s1.4,0.2,1.8,0.8C85.9,11.5,86.1,12.1,86.1,12.9z M85,12.9c0-0.5-0.1-0.9-0.3-1.3
		c-0.2-0.5-0.6-0.6-1-0.6s-0.8,0.2-1,0.6c-0.2,0.3-0.3,0.8-0.3,1.3s0.1,0.9,0.3,1.3c0.2,0.5,0.6,0.6,1,0.6s0.8-0.2,1-0.7
		C84.9,13.9,85,13.4,85,12.9z"/>
	<path class="st0" d="M91.8,15.6h-1L90.6,15l0,0c-0.3,0.5-0.9,0.7-1.5,0.7c-0.5,0-0.9-0.1-1.1-0.5c-0.2-0.3-0.5-0.7-0.5-1
		c0-0.7,0.2-1.1,0.8-1.5c0.6-0.3,1.3-0.5,2.3-0.5v-0.1c0-0.7-0.3-1-1-1c-0.6,0-0.9,0.1-1.4,0.3L88,10.7c0.5-0.3,1-0.5,1.8-0.5
		c1.4,0,2.1,0.7,2.1,2.2v1.9C91.8,14.9,91.8,15.2,91.8,15.6z M90.6,13.8v-0.8c-1.3,0-1.9,0.3-1.9,1c0,0.2,0.1,0.5,0.2,0.6
		c0.1,0.1,0.3,0.2,0.6,0.2s0.5-0.1,0.7-0.2s0.3-0.3,0.5-0.6C90.6,14,90.6,13.9,90.6,13.8z"/>
	<path class="st0" d="M98.4,15.6h-1v-0.8l0,0c-0.3,0.7-0.9,0.9-1.7,0.9c-0.7,0-1.1-0.2-1.6-0.7c-0.5-0.5-0.6-1.1-0.6-1.9
		c0-0.8,0.2-1.5,0.7-2.1c0.5-0.5,1-0.7,1.6-0.7c0.7,0,1.1,0.2,1.5,0.7l0,0V8h1.1v6.2C98.4,14.7,98.4,15.1,98.4,15.6z M97.3,13.4
		v-0.9c0-0.1,0-0.2,0-0.3c-0.1-0.2-0.2-0.5-0.5-0.7c-0.2-0.2-0.5-0.2-0.8-0.2c-0.5,0-0.8,0.2-1,0.6c-0.2,0.3-0.3,0.8-0.3,1.4
		c0,0.6,0.1,0.9,0.3,1.3c0.2,0.3,0.6,0.6,1,0.6c0.3,0,0.7-0.1,0.9-0.5C97.1,14.1,97.3,13.8,97.3,13.4z"/>
	<path class="st0" d="M108.4,12.9c0,0.8-0.2,1.5-0.7,1.9c-0.5,0.6-1.1,0.8-1.9,0.8s-1.4-0.2-1.8-0.8c-0.5-0.5-0.7-1.1-0.7-1.9
		s0.2-1.5,0.7-1.9c0.5-0.6,1.1-0.8,1.9-0.8c0.8,0,1.4,0.2,1.8,0.8C108.1,11.5,108.4,12.1,108.4,12.9z M107.1,12.9
		c0-0.5-0.1-0.9-0.3-1.3c-0.2-0.5-0.6-0.6-1-0.6s-0.8,0.2-1,0.6s-0.3,0.8-0.3,1.3s0.1,0.9,0.3,1.3c0.2,0.5,0.6,0.6,1,0.6
		s0.8-0.2,1-0.7C107,13.9,107.1,13.4,107.1,12.9z"/>
	<path class="st0" d="M114.7,15.6h-1.1v-3c0-0.9-0.3-1.4-1-1.4c-0.3,0-0.6,0.1-0.8,0.3c-0.2,0.2-0.3,0.6-0.3,0.9v3.1h-1.1v-3.8
		c0-0.5,0-0.9,0-1.5h1v0.8l0,0c0.1-0.2,0.3-0.5,0.6-0.7c0.3-0.2,0.7-0.3,1-0.3c0.5,0,0.9,0.1,1.3,0.5c0.5,0.3,0.6,0.9,0.6,1.7V15.6z
		"/>
	<path class="st0" d="M122.5,11.2h-1.3v2.5c0,0.7,0.2,0.9,0.7,0.9c0.2,0,0.3,0,0.6,0v0.9c-0.2,0.1-0.6,0.1-0.9,0.1
		c-0.5,0-0.8-0.1-1-0.5c-0.2-0.2-0.3-0.8-0.3-1.4v-2.6h-0.8v-0.9h0.8V9.4l1.1-0.3v1.3h1.3v0.9H122.5z"/>
	<path class="st0" d="M128.7,15.6h-1.1v-3c0-0.9-0.3-1.4-1-1.4c-0.6,0-0.9,0.2-1.1,0.8c0,0.1,0,0.2,0,0.5v3.1h-1.1V7.9h1.1v3.2l0,0
		c0.3-0.6,0.9-0.9,1.6-0.9c0.5,0,0.9,0.1,1.1,0.5c0.3,0.3,0.6,1,0.6,1.7V15.6z"/>
	<path class="st0" d="M135,12.7c0,0.2,0,0.3,0,0.6h-3.4c0,0.6,0.2,0.9,0.5,1.1c0.3,0.2,0.7,0.3,1.1,0.3c0.6,0,1-0.1,1.4-0.2l0.2,0.8
		c-0.5,0.2-1,0.3-1.7,0.3c-0.8,0-1.5-0.2-1.9-0.7c-0.5-0.5-0.7-1.1-0.7-1.9c0-0.8,0.2-1.5,0.7-1.9c0.5-0.6,1-0.8,1.8-0.8
		c0.8,0,1.4,0.2,1.7,0.8C134.8,11.5,135,12,135,12.7z M133.9,12.4c0-0.3-0.1-0.7-0.2-0.9c-0.2-0.3-0.5-0.5-0.9-0.5
		c-0.3,0-0.7,0.1-0.9,0.5c-0.2,0.2-0.3,0.6-0.3,0.9H133.9z"/>
</g>
</svg>
