<?xml version="1.0" encoding="utf-8"?>
<!-- Generator: Adobe Illustrator 25.2.3, SVG Export Plug-In . SVG Version: 6.00 Build 0)  -->
<svg version="1.1" id="Camada_1" xmlns="http://www.w3.org/2000/svg" xmlns:xlink="http://www.w3.org/1999/xlink" x="0px" y="0px"
	 viewBox="0 0 155 45.9" style="enable-background:new 0 0 155 45.9;" xml:space="preserve">
<style type="text/css">
	.st0{fill:#FFFFFF;stroke:#FFFFFF;stroke-width:0.2;stroke-miterlimit:10;}
	.st1{fill:#FFFFFF;}
	.st2{fill:url(#SVGID_1_);}
	.st3{fill:url(#SVGID_2_);}
	.st4{fill:url(#SVGID_3_);}
	.st5{fill:url(#SVGID_4_);}
	.st6{opacity:0.2;enable-background:new    ;}
	.st7{opacity:0.12;enable-background:new    ;}
	.st8{opacity:0.25;fill:#FFFFFF;enable-background:new    ;}
</style>
<path d="M5.7,0h143.5c3.2,0,5.7,2.6,5.7,5.7v34.4c0,3.2-2.6,5.7-5.7,5.7H5.7c-3.2,0-5.7-2.6-5.7-5.7V5.7C0,2.6,2.6,0,5.7,0z"/>
<path d="M149.3,0.9c2.7,0,4.8,2.2,4.8,4.8v34.4c0,2.7-2.2,4.8-4.8,4.8H5.7c-2.7,0-4.8-2.2-4.8-4.8l0,0V5.7c0-2.7,2.2-4.8,4.8-4.8
	l0,0H149.3 M149.3,0H5.7C2.6,0,0,2.6,0,5.7v34.4c0,3.2,2.6,5.7,5.7,5.7h143.5c3.2,0,5.7-2.6,5.7-5.7V5.7C155,2.6,152.4,0,149.3,0z"
	/>
<path class="st0" d="M54.4,11.8c0,0.9-0.3,1.7-0.9,2.3c-0.7,0.7-1.6,1.1-2.5,1c-2,0-3.6-1.6-3.6-3.6c0-0.9,0.4-1.9,1.1-2.5
	c0.7-0.7,1.6-1.1,2.5-1c0.5,0,1,0.1,1.4,0.3c0.4,0.2,0.8,0.4,1.1,0.8l-0.6,0.6c-0.5-0.6-1.2-0.9-1.9-0.8c-1.5,0-2.7,1.2-2.7,2.7
	c0,0,0,0.1,0,0.1c0,1.5,1.2,2.7,2.7,2.7c0.7,0,1.4-0.3,1.9-0.8c0.4-0.4,0.6-0.9,0.6-1.4h-2.5v-0.8h3.3
	C54.4,11.4,54.4,11.6,54.4,11.8z M59.7,8.9h-3.1v2.2h2.8v0.8h-2.8v2.2h3.1v0.8h-4V8h4V8.9z M63.5,14.9h-0.9v-6h-1.9V8h4.8v0.8h-2
	V14.9z M68.8,14.9V8h0.9v6.9H68.8z M73.6,14.9h-0.9v-6h-1.9V8h4.7v0.8h-1.9L73.6,14.9z M84.5,14c-1.4,1.4-3.7,1.4-5.1,0
	c-1.4-1.4-1.4-3.7,0-5.1c1.4-1.4,3.6-1.4,5,0c0,0,0,0,0,0C85.9,10.4,85.9,12.6,84.5,14z M80.1,13.5c1,1,2.7,1,3.7,0
	c1-1.1,1-2.8,0-3.9c-1-1-2.7-1-3.7,0C79.1,10.6,79.1,12.3,80.1,13.5z M86.8,14.9V8h1.1l3.4,5.4V8h0.9v6.9h-0.9l-3.5-5.6v5.6H86.8z"
	/>
<path class="st1" d="M78.2,25c-2.7,0-4.9,2.2-4.9,4.9c0,2.7,2.2,4.9,4.9,4.9c2.7,0,4.9-2.2,4.9-4.9c0-2.7-2.1-4.8-4.7-4.9
	C78.3,25,78.3,25,78.2,25z M78.2,32.8c-1.6,0.1-3-1.1-3.2-2.7c-0.1-1.6,1.1-3,2.7-3.2c1.6-0.1,3,1.1,3.2,2.7c0,0.1,0,0.1,0,0.2
	C81.1,31.4,79.9,32.7,78.2,32.8C78.3,32.8,78.3,32.8,78.2,32.8z M67.5,25c-2.7,0-4.9,2.2-4.9,4.9c0,2.7,2.2,4.9,4.9,4.9
	c2.7,0,4.9-2.2,4.9-4.9c0-2.7-2.1-4.8-4.7-4.9C67.6,25,67.6,25,67.5,25L67.5,25z M67.5,32.8c-1.6,0.1-3.1-1.1-3.2-2.7
	c-0.1-1.6,1.1-3.1,2.7-3.2c1.6-0.1,3.1,1.1,3.2,2.7c0,0.1,0,0.1,0,0.2C70.4,31.4,69.2,32.7,67.5,32.8C67.6,32.8,67.6,32.8,67.5,32.8
	L67.5,32.8z M54.8,26.5v2.1h5c-0.1,1-0.5,1.9-1.1,2.6c-1,1-2.4,1.6-3.8,1.5c-3,0-5.5-2.5-5.5-5.5s2.5-5.5,5.5-5.5
	c1.4,0,2.7,0.5,3.8,1.5l1.5-1.5c-1.4-1.4-3.2-2.2-5.2-2.1c-4.2-0.2-7.7,3.1-7.9,7.3s3.1,7.7,7.3,7.9c0.2,0,0.4,0,0.6,0
	c2,0.1,3.9-0.7,5.3-2.1c1.2-1.3,1.8-3.1,1.8-4.8c0-0.4,0-0.9-0.1-1.3L54.8,26.5z M106.8,28.1c-0.6-1.8-2.3-3-4.2-3.1
	c-2.5,0-4.6,2-4.6,4.6c0,0.1,0,0.2,0,0.3c-0.1,2.6,2,4.8,4.7,4.9c0.1,0,0.1,0,0.2,0c1.6,0,3.2-0.8,4.1-2.2l-1.7-1.1
	c-0.5,0.8-1.4,1.4-2.4,1.4c-1,0-2-0.5-2.4-1.5l6.5-2.7L106.8,28.1z M100.2,29.7c-0.1-1.5,1-2.7,2.5-2.8c0,0,0,0,0.1,0
	c0.8,0,1.5,0.4,1.8,1L100.2,29.7z M94.9,34.4H97V20.1h-2.1V34.4z M91.4,26.1L91.4,26.1c-0.7-0.7-1.7-1.1-2.7-1.1
	C86,25,83.9,27.3,84.1,30c0.1,2.5,2.1,4.5,4.6,4.6c1,0,1.9-0.4,2.6-1.1h0.1v0.7c0,1.9-1,2.9-2.6,2.9c-1.1,0-2.1-0.7-2.5-1.7
	l-1.9,0.8c0.7,1.8,2.4,2.9,4.3,2.9c2.5,0,4.6-1.5,4.6-5.1v-8.7h-2V26.1z M88.9,32.8c-1.6-0.1-2.8-1.6-2.7-3.2
	c0.1-1.4,1.3-2.6,2.7-2.7c1.5,0.1,2.7,1.4,2.6,2.9c0,0,0,0,0,0.1c0.1,1.5-1,2.8-2.5,3C89,32.8,88.9,32.8,88.9,32.8L88.9,32.8z
	 M116.9,20.1h-5.1v14.4h2.1V29h3c2.5,0.2,4.6-1.7,4.8-4.1c0.2-2.5-1.7-4.6-4.1-4.8C117.3,20.1,117.1,20.1,116.9,20.1L116.9,20.1z
	 M116.9,27h-3v-4.9h3c1.4,0,2.5,1.1,2.5,2.5C119.4,25.9,118.3,27,116.9,27L116.9,27z M130.1,24.9c-1.6-0.1-3.1,0.8-3.8,2.2l1.9,0.8
	c0.4-0.7,1.1-1.1,2-1.1c1.1-0.1,2.2,0.7,2.3,1.8c0,0,0,0,0,0v0.1c-0.7-0.4-1.5-0.6-2.2-0.6c-2.1,0-4.1,1.1-4.1,3.2
	c0.1,1.8,1.6,3.2,3.5,3.2c0,0,0.1,0,0.1,0c1.1,0.1,2.2-0.4,2.8-1.4h0.1v1.1h2.1v-5.5C134.5,26.4,132.6,24.9,130.1,24.9L130.1,24.9z
	 M129.9,32.8c-0.7,0-1.7-0.4-1.7-1.2c0-1.1,1.2-1.5,2.3-1.5c0.7,0,1.4,0.1,2,0.5C132.3,31.8,131.2,32.8,129.9,32.8L129.9,32.8z
	 M142.1,25.3l-2.5,6.2h-0.1l-2.5-6.2h-2.3l3.8,8.7l-2.2,4.8h2.2l5.9-13.5H142.1z M122.8,34.4h2.1V20.1h-2.1V34.4z"/>
<linearGradient id="SVGID_1_" gradientUnits="userSpaceOnUse" x1="25.0325" y1="888.0032" x2="5.7666" y2="907.2692" gradientTransform="matrix(1 0 0 1 0 -878)">
	<stop  offset="0" style="stop-color:#00A0FF"/>
	<stop  offset="1.000000e-02" style="stop-color:#00A1FF"/>
	<stop  offset="0.26" style="stop-color:#00BEFF"/>
	<stop  offset="0.51" style="stop-color:#00D2FF"/>
	<stop  offset="0.76" style="stop-color:#00DFFF"/>
	<stop  offset="1" style="stop-color:#00E3FF"/>
</linearGradient>
<path class="st2" d="M12,8.7c-0.4,0.4-0.6,1-0.5,1.6v25.4c0,0.6,0.2,1.2,0.5,1.6l0.1,0.1l14.2-14.2v-0.3L12,8.7L12,8.7z"/>
<linearGradient id="SVGID_2_" gradientUnits="userSpaceOnUse" x1="38.8419" y1="900.963" x2="11.0681" y2="900.963" gradientTransform="matrix(1 0 0 1 0 -878)">
	<stop  offset="0" style="stop-color:#FFE000"/>
	<stop  offset="0.41" style="stop-color:#FFBD00"/>
	<stop  offset="0.78" style="stop-color:#FFA500"/>
	<stop  offset="1" style="stop-color:#FF9C00"/>
</linearGradient>
<path class="st3" d="M31,27.9l-4.7-4.7v-0.3L31,18l0.1,0.1l5.6,3.2c1.6,0.9,1.6,2.4,0,3.3l-5.6,3.2L31,27.9z"/>
<linearGradient id="SVGID_3_" gradientUnits="userSpaceOnUse" x1="28.5056" y1="903.6008" x2="2.3737" y2="929.7211" gradientTransform="matrix(1 0 0 1 0 -878)">
	<stop  offset="0" style="stop-color:#FF3A44"/>
	<stop  offset="1" style="stop-color:#C31162"/>
</linearGradient>
<path class="st4" d="M31.1,27.8L26.3,23L12,37.3c0.7,0.6,1.7,0.6,2.4,0.1L31.1,27.8"/>
<linearGradient id="SVGID_4_" gradientUnits="userSpaceOnUse" x1="8.3786" y1="878.2095" x2="20.0438" y2="889.8747" gradientTransform="matrix(1 0 0 1 0 -878)">
	<stop  offset="0" style="stop-color:#32A071"/>
	<stop  offset="7.000000e-02" style="stop-color:#2DA771"/>
	<stop  offset="0.48" style="stop-color:#15CF74"/>
	<stop  offset="0.8" style="stop-color:#06E775"/>
	<stop  offset="1" style="stop-color:#00F076"/>
</linearGradient>
<path class="st5" d="M31.1,18.1L14.4,8.6C13.7,8,12.7,8.1,12,8.7L26.3,23L31.1,18.1z"/>
<path class="st6" d="M31,27.7l-16.6,9.5c-0.7,0.5-1.6,0.5-2.3,0L12,37.3l0.1,0.1c0.7,0.5,1.6,0.5,2.3,0l16.8-9.5L31,27.7z"/>
<path class="st7" d="M12,37.1c-0.4-0.4-0.6-1-0.5-1.6v0.2c0,0.6,0.2,1.2,0.5,1.6V37.1L12,37.1z M36.7,24.5L31,27.7l0.1,0.1l5.6-3.2
	c0.7-0.3,1.1-0.9,1.1-1.7C37.8,23.6,37.3,24.2,36.7,24.5z"/>
<path class="st8" d="M14.4,8.7l22.4,12.7c0.6,0.3,1,0.8,1.1,1.5c-0.1-0.7-0.5-1.3-1.1-1.7L14.4,8.6c-1.6-0.9-2.9-0.1-2.9,1.7v0.2
	C11.5,8.6,12.8,7.8,14.4,8.7z"/>
</svg>
